# xmcd
#
# Track frame offsets:
#   150
#   12425
#   29921
#   48696
#   66549
#   84067
#   106187
#   121128
#   156678
#   175841
#   193876
#   211115
#   228016
#   249348
#   257567
#   273188
#   292526
#
# Disc length: 4161 seconds
#
# Revision: 0
# Processed by: cddbd v1.5.2PL0 Copyright (c) Steve Scherf et al.
# Submitted via: GXTranscoder 2.0.1939
#
DISCID=e7103f11
DTITLE=Keith Green - Ministri years
DYEAR=1900
DGENRE=Country
TTITLE0=How I love you
TTITLE1=arb
TTITLE2=arb
TTITLE3=arb
TTITLE4=xxx
TTITLE5=erf
TTITLE6=dre
TTITLE7=def
TTITLE8=def
TTITLE9=dfb
TTITLE10=dcd
TTITLE11=cdc
TTITLE12=ccc
TTITLE13=ccc
TTITLE14=xxx
TTITLE15=xxx
TTITLE16=xxx
EXTD=
EXTT0=
EXTT1=
EXTT2=
EXTT3=
EXTT4=
EXTT5=
EXTT6=
EXTT7=
EXTT8=
EXTT9=
EXTT10=
EXTT11=
EXTT12=
EXTT13=
EXTT14=
EXTT15=
EXTT16=
PLAYORDER=
